# xmcd CD database file
#
# Track frame offsets:
#	150
#	15205
#	30947
#	46145
#	60542
#	79092
#	94757
#	108545
#	125540
#	146267
#	163055
#	177547
#	194932
#	209092
#	223388
#	244462
#	259834
#	288722
#
# Disc length: 4048 seconds
#
# Revision: 0
# Processed by: cddbd v1.5.2PL0 Copyright (c) Steve Scherf et al.
# Submitted via: CDex 1.51
#
DISCID=160fce12
DTITLE=Norah Jones - Feels like home
DYEAR=2004
DGENRE=Jazz
TTITLE0=Sunrise
TTITLE1=What am I to you?
TTITLE2=Those sweet words
TTITLE3=Carnival Town
TTITLE4=In the morning
TTITLE5=Be here to love me
TTITLE6=Creepin' in
TTITLE7=Toes
TTITLE8=Humble me
TTITLE9=Above ground
TTITLE10=The long way home
TTITLE11=The prettiest thing
TTITLE12=Don't miss you at all
TTITLE13=NorahJones - ComeAwayWithMe-WFUV-Bronx-NY-030302
TTITLE14=NorahJones - HouseofBlues041602_ColdColdHeart
TTITLE15=NorahJones - HouseofBlues041602_FeelingtheSameWay
TTITLE16=NorahJones - HouseofBlues041602_Nearness
TTITLE17=NorahJones - IllBeYourBabyTonight-WFUV-Bronx-NY-030302
EXTD=YEAR: 2004
EXTT0=
EXTT1=
EXTT2=
EXTT3=
EXTT4=
EXTT5=
EXTT6=
EXTT7=
EXTT8=
EXTT9=
EXTT10=
EXTT11=
EXTT12=
EXTT13=
EXTT14=
EXTT15=
EXTT16=
EXTT17=
PLAYORDER=
